<svg version="1.1" id="Layer_1" xmlns="http://www.w3.org/2000/svg" xmlns:xlink="http://www.w3.org/1999/xlink" x="0px" y="0px"
	 width="100%" viewBox="0 0 1080 1080" enable-background="new 0 0 1080 1080" xml:space="preserve">
<path fill="none" opacity="0.000000" stroke="none" 
	d="
M691.000000,1081.000000 
	C460.693176,1081.000000 230.886383,1081.000000 1.039782,1081.000000 
	C1.039782,721.068054 1.039782,361.136139 1.039782,1.102095 
	C360.890350,1.102095 720.780762,1.102095 1080.835571,1.102095 
	C1080.835571,360.999939 1080.835571,720.999939 1080.835571,1081.000000 
	C951.135681,1081.000000 821.317810,1081.000000 691.000000,1081.000000 
M495.950012,809.042480 
	C495.950012,809.042480 495.846985,809.059265 496.018799,809.588013 
	C496.326416,809.776611 496.634003,809.965271 496.952393,810.049805 
	C496.952393,810.049805 496.847809,810.053406 497.019562,810.604797 
	C497.321716,810.834900 497.623871,811.065063 498.245422,811.860352 
	C507.416565,820.639526 518.213379,826.887817 530.372925,830.039246 
	C557.481079,837.065125 582.747375,832.126038 604.810425,814.988098 
	C626.483704,798.153015 637.223816,775.484131 636.648438,746.913940 
	C636.539795,745.488770 636.431152,744.063538 636.571594,742.223206 
	C636.408752,741.622864 636.245850,741.022461 636.013916,739.516846 
	C634.495972,727.535339 631.804504,715.795715 625.653564,705.342041 
	C619.422241,694.751587 612.680359,684.417908 605.532837,674.421753 
	C597.530762,663.230530 588.867310,652.509216 580.390076,641.662842 
	C578.184082,638.840332 577.447205,636.801086 580.424805,633.653076 
	C584.659119,629.176331 588.081604,623.931702 591.987610,619.009155 
	C591.987610,619.009155 591.993286,618.872437 592.372192,618.795837 
	C592.547119,618.591125 592.636108,618.354187 593.041504,617.805420 
	C593.041504,617.805420 593.125366,617.322815 593.795837,617.124573 
	C598.184509,612.083618 602.573181,607.042603 607.424683,601.521484 
	C609.274780,599.637451 611.124878,597.753357 613.517700,595.527771 
	C614.718628,594.369629 615.919495,593.211548 617.645325,591.850586 
	C618.125732,591.291687 618.606140,590.732788 619.713928,589.923096 
	C622.473877,587.269226 625.233765,584.615295 628.677368,581.934692 
	C642.790894,569.742615 656.849915,557.486572 671.044250,545.389343 
	C676.875366,540.419678 677.017029,540.563354 683.043396,544.988098 
	C685.593079,546.860229 688.032959,548.887329 690.631287,550.687256 
	C709.917969,564.047424 728.886841,577.910339 748.665466,590.500183 
	C760.749329,598.192078 774.325073,603.193604 789.769043,604.194092 
	C793.507202,604.115845 797.245361,604.037598 801.683594,604.090210 
	C802.140625,603.981873 802.597717,603.873535 803.806030,603.878906 
	C805.529907,603.555542 807.253723,603.232178 809.666748,603.014526 
	C810.111328,602.896545 810.555908,602.778564 811.779114,602.753235 
	C812.808838,601.416748 814.610657,600.147034 814.732849,598.732117 
	C815.227661,593.003479 815.324890,587.229553 815.292847,581.473816 
	C815.284607,579.984436 814.273621,578.500671 814.648560,577.006409 
	C818.298523,577.692322 821.939636,578.433167 825.604370,579.028076 
	C826.601074,579.189941 827.971313,579.299927 828.652771,578.769348 
	C831.778687,576.335327 833.998840,577.739624 836.498352,579.896729 
	C838.721191,581.815063 841.214233,583.570007 843.871094,584.770813 
	C845.148132,585.347900 847.932373,585.073547 848.563721,584.164001 
	C851.229492,580.323914 854.228577,580.218140 857.623535,582.650330 
	C860.731384,578.174194 862.724609,573.916382 860.249146,568.311096 
	C863.222900,563.902649 866.622375,559.718933 869.091309,555.043884 
	C876.710144,540.617065 880.562500,525.335938 878.242432,507.972778 
	C878.094055,505.316437 878.080750,502.644531 877.776245,500.006226 
	C874.860718,474.744476 863.600281,454.360626 842.097168,439.241180 
	C840.772888,438.340057 839.448608,437.438904 837.572449,436.024689 
	C828.057434,432.727081 818.542358,429.429443 808.240967,425.830383 
	C801.819458,425.950378 795.398010,426.070374 788.337463,426.138458 
	C787.991211,426.357635 787.645020,426.576813 786.560547,426.686615 
	C778.705811,429.741364 770.851013,432.796082 762.253052,435.886597 
	C755.502930,439.804016 748.752869,443.721436 741.302734,447.836365 
	C718.304138,465.377991 695.305542,482.919586 672.408325,500.383911 
	C667.264282,496.187775 661.629944,491.591705 655.823792,486.538116 
	C655.631042,486.233673 655.354614,486.086487 654.673157,485.502289 
	C648.119812,479.992310 641.566467,474.482330 634.754700,468.367035 
	C632.612305,466.540985 630.469910,464.714935 628.020630,462.303284 
	C626.682861,461.195526 625.345093,460.087769 623.831726,458.500061 
	C623.543579,458.337860 623.255371,458.175659 622.670776,457.413910 
	C608.380554,442.432465 594.159546,427.383789 579.732666,412.535095 
	C577.296936,410.028137 577.287720,408.211639 579.765503,405.765106 
	C579.765503,405.765106 579.867188,405.444397 580.190735,405.137604 
	C580.401917,404.760284 580.613098,404.382996 581.106995,403.781128 
	C581.106995,403.781128 581.137878,403.421387 581.731384,403.051178 
	C584.915588,398.638397 588.048950,394.187927 591.292725,389.819458 
	C604.863098,371.543915 618.137390,353.064789 627.951538,332.412964 
	C632.899902,322.000122 635.756592,310.959137 636.609192,298.453766 
	C636.414551,292.663239 636.651917,286.820099 635.954651,281.090729 
	C631.618713,245.462082 607.205200,220.341354 572.332458,213.438965 
	C556.589661,210.322998 541.099731,211.407990 525.234863,217.033539 
	C523.363770,217.706421 521.476746,218.338516 519.623901,219.058289 
	C488.228058,231.254456 467.915833,265.269379 472.198761,298.979218 
	C472.151093,300.967865 471.763977,303.017670 472.109375,304.935516 
	C474.874847,320.289795 480.849091,334.461548 489.491882,347.313629 
	C499.208313,361.762329 509.525269,375.817352 519.884277,389.819214 
	C524.595642,396.187347 530.036682,402.015594 535.189941,408.759918 
	C535.206421,409.207977 535.222900,409.656006 534.626709,410.391785 
	C526.610291,419.715271 518.687622,429.121338 510.559265,438.346161 
	C489.080231,462.722534 464.483643,483.558533 437.204712,501.774658 
	C433.990875,499.145508 430.829071,496.449524 427.553650,493.899475 
	C416.934418,485.632172 406.273529,477.418335 395.369598,468.760956 
	C394.912628,468.593323 394.455688,468.425720 393.624512,467.682861 
	C381.359375,459.709686 369.295837,451.401428 356.768280,443.864471 
	C345.832214,437.285034 334.846680,430.527466 321.482574,427.540100 
	C319.641388,427.112335 317.800232,426.684570 315.502197,426.102264 
	C315.502197,426.102264 315.022583,426.152893 314.439758,425.974640 
	C314.035675,425.953339 313.631622,425.932068 312.797363,425.480682 
	C312.213867,425.381592 311.630341,425.282501 310.214020,425.009918 
	C285.128601,422.533569 263.904205,431.543457 244.312408,447.363831 
	C235.789368,455.106567 229.791550,464.664276 225.093094,475.009308 
	C216.654099,493.590271 216.094788,513.037964 220.252899,532.630066 
	C226.707993,563.044922 244.493561,584.859314 272.664551,599.300049 
	C301.103821,609.091858 328.680237,606.102661 354.641449,591.857422 
	C382.146545,576.765076 408.952576,560.398621 436.315674,544.441833 
	C440.544342,547.942932 445.317474,551.817444 450.005951,555.791809 
	C461.928833,565.898621 473.813812,576.050110 485.998108,586.792358 
	C494.895386,595.616760 503.792664,604.441223 512.861877,613.932495 
	C519.733032,622.385132 526.604187,630.837830 533.342407,639.126953 
	C531.885559,640.993347 530.778687,642.411438 529.102905,644.145508 
	C515.580200,661.830505 501.461456,679.097351 488.687988,697.307922 
	C473.279114,719.275696 468.717773,744.080750 473.359589,770.493103 
	C473.893799,773.532654 475.333221,776.413147 476.448853,780.069885 
	C476.727509,780.717346 477.006134,781.364807 477.315887,782.710083 
	C479.167267,786.189880 481.018646,789.669678 482.863129,793.030518 
	C482.863129,793.030518 482.816254,793.140076 482.923126,793.835510 
	C485.917328,797.648804 488.911560,801.462158 492.161835,805.790283 
	C493.007965,806.552551 493.854095,807.314819 494.969421,808.589233 
	C495.297363,808.775085 495.625305,808.960999 495.950012,809.042480 
z"/>
<path fill="#394057" opacity="1.000000" stroke="none" 
	d="
M811.000488,602.660522 
	C810.555908,602.778564 810.111328,602.896545 809.084167,602.728760 
	C806.685974,602.883728 804.870361,603.324463 803.054749,603.765259 
	C802.597717,603.873535 802.140625,603.981873 801.028809,603.755615 
	C796.587280,603.601196 792.800415,603.781433 789.013611,603.961609 
	C774.325073,603.193604 760.749329,598.192078 748.665466,590.500183 
	C728.886841,577.910339 709.917969,564.047424 690.631287,550.687256 
	C688.032959,548.887329 685.593079,546.860229 683.043396,544.988098 
	C677.017029,540.563354 676.875366,540.419678 671.044250,545.389343 
	C656.849915,557.486572 642.790894,569.742615 628.325073,581.578735 
	C624.854065,575.878174 621.657043,575.542969 616.481628,580.018005 
	C610.879028,584.862427 609.521973,584.918335 604.435120,580.575928 
	C604.072510,580.266418 603.558655,580.134705 603.116699,579.917297 
	C597.020935,576.918579 586.638977,582.120422 584.575806,589.059998 
	C582.586365,588.530029 581.021057,587.935242 579.655884,587.195068 
	C602.131775,564.966370 624.407532,542.883057 646.954834,520.530579 
	C646.376221,520.017578 645.183960,518.919739 643.949158,517.871948 
	C631.785278,507.549988 619.046143,497.826355 607.578552,486.782074 
	C590.347595,470.187042 574.006165,452.668457 557.154846,435.242859 
	C549.761902,426.663483 542.500610,418.383789 535.239380,410.104065 
	C535.222900,409.656006 535.206421,409.207977 535.499390,408.359589 
	C537.271118,406.663177 538.884033,405.500275 540.169128,404.047455 
	C545.160828,398.404083 550.048401,392.668549 555.191650,386.857483 
	C555.676941,386.543579 555.857727,386.279602 555.964722,385.976624 
	C555.978333,385.997589 555.940491,385.954407 556.187012,385.797485 
	C556.622864,385.102661 556.812317,384.564758 557.007629,383.795227 
	C557.013489,383.563599 556.995056,383.100525 557.166016,383.001099 
	C557.336975,382.901642 557.731018,382.879822 558.045532,383.034424 
	C558.567749,384.468353 559.338623,386.020050 558.876587,386.975525 
	C557.528687,389.762787 555.536316,392.233307 554.111511,394.990784 
	C553.492554,396.188629 553.468689,397.798431 553.578430,399.189301 
	C553.603455,399.506683 555.544434,400.182526 556.185608,399.860687 
	C561.072144,397.407898 568.101013,398.672272 570.273499,391.331757 
	C570.954041,389.032410 574.098267,387.636810 575.659363,390.315643 
	C578.022766,394.371155 579.362976,399.022949 581.137878,403.421387 
	C581.137878,403.421387 581.106995,403.781128 580.682373,403.951660 
	C580.127502,404.562927 579.997375,405.003662 579.867188,405.444397 
	C579.867188,405.444397 579.765503,405.765106 579.272705,405.577148 
	C574.854004,403.599304 572.060669,403.959991 570.365967,408.670807 
	C569.649475,410.662659 567.428040,412.199860 565.685852,413.706970 
	C564.428345,414.794769 561.532898,415.685699 561.628662,416.326752 
	C561.928833,418.336426 562.809631,420.855316 564.343140,421.977600 
	C569.819092,425.985077 576.048035,429.021759 581.267273,433.308258 
	C589.143799,439.777069 597.030823,446.438141 603.766052,454.034729 
	C610.708618,461.865112 614.642456,463.382355 622.967224,458.013458 
	C623.255371,458.175659 623.543579,458.337860 623.964600,459.094177 
	C625.507507,460.755127 626.917480,461.821991 628.327454,462.888855 
	C630.469910,464.714935 632.612305,466.540985 634.734131,468.994537 
	C634.072388,470.352570 633.570557,471.350525 632.766907,471.769501 
	C628.146362,474.178345 628.005432,475.051331 631.221069,478.781891 
	C633.809937,481.785400 635.972412,485.155548 638.548767,488.171112 
	C642.954895,493.328430 647.345032,498.525360 652.109497,503.342010 
	C655.541016,506.811188 659.847839,509.418488 663.252136,512.909607 
	C666.495605,516.235840 669.384338,516.772034 673.321289,514.266174 
	C675.345032,512.978027 677.885315,512.387878 680.271667,511.811005 
	C683.457947,511.040894 685.659485,509.665070 687.447693,506.559113 
	C690.838806,500.668854 695.311523,495.809357 703.359070,497.917816 
	C704.400085,498.190552 705.727295,497.933533 706.770142,497.529755 
	C709.783997,496.362762 711.278992,497.684814 712.715454,500.242889 
	C714.283081,503.034637 713.257324,504.329742 710.919617,505.789581 
	C708.896729,507.052887 707.029663,508.821136 709.902161,511.416931 
	C707.035400,513.869568 704.325867,516.027832 701.219421,518.502319 
	C707.210205,523.109558 712.830994,527.440063 718.460144,531.759644 
	C727.021912,538.329590 735.589478,544.892029 744.117859,551.876465 
	C742.868835,560.633728 742.899109,560.664001 750.638672,565.329285 
	C751.750793,565.999634 753.380310,566.681274 753.681885,567.684814 
	C755.556274,573.921204 760.941162,575.251221 766.034546,577.214844 
	C767.823364,577.904419 769.525635,579.139771 770.911926,580.490723 
	C774.812500,584.291870 779.441345,584.387146 784.551880,584.517090 
	C790.325623,584.664001 797.172180,584.752319 801.503784,587.788513 
	C805.956482,590.909546 807.937744,597.556519 811.000488,602.660522 
z"/>
<path fill="#383F55" opacity="1.000000" stroke="none" 
	d="
M485.713959,586.183716 
	C473.813812,576.050110 461.928833,565.898621 450.005951,555.791809 
	C445.317474,551.817444 440.544342,547.942932 436.315674,544.441833 
	C408.952576,560.398621 382.146545,576.765076 354.641449,591.857422 
	C328.680237,606.102661 301.103821,609.091858 272.522278,598.775269 
	C272.397461,597.125610 272.596436,595.968140 272.401917,594.881104 
	C271.408539,589.330383 269.999634,583.834045 269.353607,578.247314 
	C268.837341,573.782837 267.345642,568.959290 271.394836,565.115479 
	C273.583344,566.331055 275.423981,567.475342 277.356812,568.433594 
	C297.294556,578.318848 316.949890,576.247803 336.579926,567.266663 
	C363.675720,554.869812 387.103180,536.527893 412.638031,520.965881 
	C417.137543,520.387085 418.319122,518.074524 416.110168,514.756348 
	C415.109009,513.252380 413.813019,511.948242 412.722351,510.499603 
	C409.886200,506.732605 407.150848,502.888062 404.252106,499.170502 
	C402.757111,497.253204 401.195190,495.299530 399.323578,493.781372 
	C394.065491,489.516144 394.448914,479.300446 384.419556,480.265411 
	C384.644440,477.921021 384.829926,475.987762 385.225983,473.787781 
	C387.974884,472.385437 390.513153,471.249756 393.210205,470.300598 
	C394.122192,470.052704 394.875427,469.618286 395.628693,469.183838 
	C406.273529,477.418335 416.934418,485.632172 427.553650,493.899475 
	C430.829071,496.449524 433.990875,499.145508 437.721497,502.170532 
	C442.756622,506.455231 447.247742,510.376282 451.801147,514.223633 
	C456.209717,517.948547 460.682373,521.597656 465.301392,525.534058 
	C475.960663,534.564209 486.445404,543.340332 496.979675,552.524231 
	C495.527100,558.619446 494.025055,564.307007 492.201508,570.089233 
	C491.091156,571.793396 490.159485,573.350159 489.542603,575.022949 
	C488.182159,578.712158 486.980438,582.459900 485.713959,586.183716 
z"/>
<path fill="#EBEAE6" opacity="1.000000" stroke="none" 
	d="
M744.154541,551.457642 
	C735.589478,544.892029 727.021912,538.329590 718.460144,531.759644 
	C712.830994,527.440063 707.210205,523.109558 701.219421,518.502319 
	C704.325867,516.027832 707.035400,513.869568 710.230957,511.323730 
	C722.196472,501.739807 733.675964,492.543427 745.489441,483.239899 
	C756.216187,476.434021 766.609009,469.735291 777.376465,463.009705 
	C781.194641,461.728607 784.638062,460.474396 788.509033,459.229309 
	C794.295532,458.818146 799.654602,458.397858 805.321777,458.180206 
	C808.642334,459.233307 811.975403,459.525787 814.606995,461.038696 
	C822.545166,465.602356 830.210693,470.640442 838.149902,475.760101 
	C844.238586,483.149109 848.417358,491.151001 850.052612,500.306061 
	C850.917358,505.147034 851.320679,510.070374 851.731445,515.312988 
	C851.758057,531.142090 847.856873,545.223633 837.576660,557.166687 
	C837.387756,557.386108 837.408875,557.786255 837.142883,558.878906 
	C841.736450,564.775635 846.629333,571.056702 850.972168,576.631531 
	C854.476624,573.626770 857.225586,571.269714 859.974487,568.912659 
	C862.724609,573.916382 860.731384,578.174194 857.623535,582.650330 
	C854.228577,580.218140 851.229492,580.323914 848.563721,584.164001 
	C847.932373,585.073547 845.148132,585.347900 843.871094,584.770813 
	C841.214233,583.570007 838.721191,581.815063 836.498352,579.896729 
	C833.998840,577.739624 831.778687,576.335327 828.652771,578.769348 
	C827.971313,579.299927 826.601074,579.189941 825.604370,579.028076 
	C821.939636,578.433167 818.298523,577.692322 813.851807,576.885864 
	C811.379944,573.812500 808.710449,573.580750 805.791016,574.170715 
	C793.863586,576.580627 782.674622,573.338074 772.287537,568.312927 
	C762.485901,563.570862 753.499512,557.143616 744.154541,551.457642 
M772.542664,486.021271 
	C757.737000,501.001007 754.717346,518.480164 764.377563,536.564148 
	C771.534241,549.961670 783.275757,558.192505 798.274109,557.348206 
	C827.178406,555.721191 841.021484,529.611389 835.387634,506.274048 
	C828.341736,477.087738 795.350525,466.355988 772.542664,486.021271 
z"/>
<path fill="#C4605D" opacity="1.000000" stroke="none" 
	d="
M477.284790,782.012268 
	C477.006134,781.364807 476.727509,780.717346 476.757080,779.480347 
	C477.091461,777.190186 476.727417,775.360046 477.238678,773.820496 
	C477.939819,771.709106 478.888550,769.233704 480.543549,768.054810 
	C481.515930,767.362244 484.565979,768.357910 485.785278,769.528015 
	C487.618469,771.287292 488.350098,774.174377 490.140839,776.003845 
	C491.763245,777.661377 494.115936,779.406189 496.255432,779.555664 
	C499.022217,779.748840 500.735107,777.626709 501.158569,774.425659 
	C501.332825,773.108704 503.347595,772.035339 504.707764,771.126160 
	C510.937988,786.608215 522.370117,796.230225 537.201782,802.129700 
	C540.970581,803.628784 545.057556,805.003174 549.045349,805.148621 
	C560.715210,805.574219 571.251038,801.440247 581.038147,795.445435 
	C595.807617,786.398804 603.678406,772.985657 605.517029,755.429504 
	C605.794617,753.239929 605.949463,751.468628 606.544678,749.708740 
	C616.842896,749.067810 626.700745,748.415588 636.558655,747.763428 
	C637.223816,775.484131 626.483704,798.153015 604.810425,814.988098 
	C582.747375,832.126038 557.481079,837.065125 530.372925,830.039246 
	C518.213379,826.887817 507.416565,820.639526 497.990723,811.305664 
	C497.439941,810.518433 497.143860,810.285889 496.847809,810.053406 
	C496.847809,810.053406 496.952393,810.049805 496.837463,809.854370 
	C496.430664,809.458984 496.138824,809.259155 495.846985,809.059265 
	C495.846985,809.059265 495.950012,809.042480 495.816956,808.839355 
	C495.355988,808.449829 495.028107,808.263489 494.700195,808.077087 
	C493.854095,807.314819 493.007965,806.552551 492.023956,805.145020 
	C491.308685,802.784058 491.063599,800.841858 490.082031,799.401733 
	C488.256500,796.723328 487.515045,792.550110 482.816254,793.140076 
	C482.816254,793.140076 482.863129,793.030518 482.897888,792.686646 
	C481.812897,788.482178 482.464935,783.652954 477.284790,782.012268 
z"/>
<path fill="#383F55" opacity="1.000000" stroke="none" 
	d="
M636.603516,747.338623 
	C626.700745,748.415588 616.842896,749.067810 606.437439,749.341675 
	C605.364990,735.467468 601.186340,723.128113 593.248352,712.291443 
	C581.966431,696.889709 570.291870,681.775208 558.736511,666.574890 
	C558.071106,665.699585 556.969238,665.156128 556.021118,664.143005 
	C549.337402,656.510254 542.703003,649.192749 536.016357,641.496521 
	C537.044312,638.784424 537.750427,636.166016 539.272034,634.169006 
	C544.709778,627.032288 550.424255,620.106384 556.272827,612.971191 
	C556.957703,612.545471 557.403870,612.249451 558.158508,612.106567 
	C558.359680,614.153076 558.148804,616.047424 558.170105,617.939209 
	C558.199219,620.529907 557.546692,623.668945 558.761292,625.562805 
	C560.142273,627.716003 563.177063,628.908691 565.644714,630.236877 
	C568.104004,631.560547 570.111511,631.335632 571.907349,628.542786 
	C573.084778,626.711731 575.409851,625.572937 577.325073,624.278137 
	C578.603333,623.413818 580.630493,623.171753 581.334839,622.037720 
	C583.212769,619.014160 584.805969,616.676819 588.644531,619.592834 
	C589.229492,620.037170 590.758606,619.238831 591.850952,619.015137 
	C588.081604,623.931702 584.659119,629.176331 580.424805,633.653076 
	C577.447205,636.801086 578.184082,638.840332 580.390076,641.662842 
	C588.867310,652.509216 597.530762,663.230530 605.532837,674.421753 
	C612.680359,684.417908 619.422241,694.751587 625.653564,705.342041 
	C631.804504,715.795715 634.495972,727.535339 635.988281,740.187134 
	C636.082703,741.451050 636.202637,742.044678 636.322571,742.638367 
	C636.431152,744.063538 636.539795,745.488770 636.603516,747.338623 
z"/>
<path fill="#C16059" opacity="1.000000" stroke="none" 
	d="
M536.068542,641.875244 
	C542.703003,649.192749 549.337402,656.510254 555.921021,664.503479 
	C541.992371,682.591736 528.013184,699.924927 514.274902,717.446838 
	C506.152802,727.805908 501.336212,739.460571 502.053070,753.399414 
	C502.830078,759.516418 503.677643,765.183777 504.525177,770.851135 
	C503.347595,772.035339 501.332825,773.108704 501.158569,774.425659 
	C500.735107,777.626709 499.022217,779.748840 496.255432,779.555664 
	C494.115936,779.406189 491.763245,777.661377 490.140839,776.003845 
	C488.350098,774.174377 487.618469,771.287292 485.785278,769.528015 
	C484.565979,768.357910 481.515930,767.362244 480.543549,768.054810 
	C478.888550,769.233704 477.939819,771.709106 477.238678,773.820496 
	C476.727417,775.360046 477.091461,777.190186 476.709137,779.129089 
	C475.333221,776.413147 473.893799,773.532654 473.359589,770.493103 
	C468.717773,744.080750 473.279114,719.275696 488.687988,697.307922 
	C501.461456,679.097351 515.580200,661.830505 529.726074,644.140137 
	C533.232910,645.854980 534.757751,644.136047 536.068542,641.875244 
z"/>
<path fill="#40ACB5" opacity="1.000000" stroke="none" 
	d="
M465.126892,525.280029 
	C460.682373,521.597656 456.209717,517.948547 451.801147,514.223633 
	C447.247742,510.376282 442.756622,506.455231 438.026459,502.291382 
	C464.483643,483.558533 489.080231,462.722534 510.559265,438.346161 
	C518.687622,429.121338 526.610291,419.715271 534.933044,410.247925 
	C542.500610,418.383789 549.761902,426.663483 556.984009,435.585114 
	C554.311218,439.431305 551.863586,442.812378 549.013062,445.810394 
	C533.549866,462.073700 518.469666,478.744873 502.296478,494.274719 
	C490.686890,505.422455 477.570862,515.001282 465.126892,525.280029 
z"/>
<path fill="#C4605D" opacity="1.000000" stroke="none" 
	d="
M271.089722,564.957947 
	C267.345642,568.959290 268.837341,573.782837 269.353607,578.247314 
	C269.999634,583.834045 271.408539,589.330383 272.401917,594.881104 
	C272.596436,595.968140 272.397461,597.125610 272.221619,598.573120 
	C244.493561,584.859314 226.707993,563.044922 220.252899,532.630066 
	C216.094788,513.037964 216.654099,493.590271 225.093094,475.009308 
	C229.791550,464.664276 235.789368,455.106567 244.784821,447.451172 
	C251.833725,451.371674 258.432007,455.168091 264.977753,459.053009 
	C268.382050,461.073547 271.693665,463.250275 274.811340,465.560852 
	C269.167664,470.857361 263.057983,475.390808 258.478638,481.142609 
	C242.398666,501.339783 245.503571,534.488953 260.528046,553.084290 
	C263.853333,557.199890 267.559113,561.008179 271.089722,564.957947 
z"/>
<path fill="#EDAE66" opacity="1.000000" stroke="none" 
	d="
M525.979797,216.948700 
	C541.099731,211.407990 556.589661,210.322998 572.332458,213.438965 
	C607.205200,220.341354 631.618713,245.462082 635.954651,281.090729 
	C636.651917,286.820099 636.414551,292.663239 636.056824,298.903839 
	C625.433350,299.608887 615.362244,299.863861 605.235352,299.658813 
	C605.095398,297.541016 604.981750,295.884155 604.931702,294.225403 
	C604.456909,278.504822 598.519043,265.229340 586.901611,254.631790 
	C578.704895,247.154724 568.859863,242.980576 558.002930,240.635437 
	C557.877319,234.455536 556.880981,233.371140 551.162109,233.026505 
	C549.189087,232.907593 547.200195,233.067871 545.223999,232.979691 
	C540.890381,232.786331 537.823303,231.812683 537.801331,226.173401 
	C537.777100,219.938995 536.442505,219.330109 530.325745,218.912292 
	C528.839355,218.810776 527.426453,217.632080 525.979797,216.948700 
z"/>
<path fill="#373D53" opacity="1.000000" stroke="none" 
	d="
M788.081482,459.220154 
	C784.638062,460.474396 781.194641,461.728607 777.377319,462.601990 
	C779.595642,456.637878 775.814941,453.331970 772.444458,450.076996 
	C768.064392,445.846924 761.843079,446.133209 758.928223,449.979889 
	C756.709778,452.907623 753.727722,455.246246 751.218323,457.969452 
	C750.289185,458.977722 749.515259,460.257111 749.063110,461.550110 
	C748.147949,464.167358 747.443237,466.863647 746.756287,469.554016 
	C745.602051,474.074249 740.866089,478.193695 745.155457,483.347076 
	C733.675964,492.543427 722.196472,501.739807 710.388184,511.029419 
	C707.029663,508.821136 708.896729,507.052887 710.919617,505.789581 
	C713.257324,504.329742 714.283081,503.034637 712.715454,500.242889 
	C711.278992,497.684814 709.783997,496.362762 706.770142,497.529755 
	C705.727295,497.933533 704.400085,498.190552 703.359070,497.917816 
	C695.311523,495.809357 690.838806,500.668854 687.447693,506.559113 
	C685.659485,509.665070 683.457947,511.040894 680.271667,511.811005 
	C677.885315,512.387878 675.345032,512.978027 673.321289,514.266174 
	C669.384338,516.772034 666.495605,516.235840 663.252136,512.909607 
	C659.847839,509.418488 655.541016,506.811188 652.109497,503.342010 
	C647.345032,498.525360 642.954895,493.328430 638.548767,488.171112 
	C635.972412,485.155548 633.809937,481.785400 631.221069,478.781891 
	C628.005432,475.051331 628.146362,474.178345 632.766907,471.769501 
	C633.570557,471.350525 634.072388,470.352570 634.863342,469.297180 
	C641.566467,474.482330 648.119812,479.992310 654.954529,485.995667 
	C655.440674,486.730530 655.693909,486.899414 655.995605,486.995636 
	C661.629944,491.591705 667.264282,496.187775 672.408325,500.383911 
	C695.305542,482.919586 718.304138,465.377991 741.620117,448.126831 
	C741.685364,449.771942 741.433228,451.126556 741.181091,452.481171 
	C743.438293,452.304138 745.333130,451.671417 745.788757,450.485687 
	C747.309448,446.528259 750.833496,446.642517 753.888550,446.116241 
	C761.314087,444.837128 762.864868,443.252960 762.996277,435.850830 
	C770.851013,432.796082 778.705811,429.741364 787.240723,426.735687 
	C788.272827,426.586639 788.624695,426.388519 788.976501,426.190369 
	C795.398010,426.070374 801.819458,425.950378 808.850586,426.230743 
	C811.206421,428.206421 812.952698,429.781738 815.390320,431.980682 
	C812.447693,432.634064 810.085938,432.710266 808.159424,433.664734 
	C800.358459,437.529572 792.636841,441.564850 784.996582,445.739807 
	C780.814331,448.025177 781.061584,452.826508 785.110718,455.635590 
	C786.338867,456.487549 787.104187,458.006622 788.081482,459.220154 
z"/>
<path fill="#C4605D" opacity="1.000000" stroke="none" 
	d="
M556.995056,383.100525 
	C556.995056,383.100525 557.013489,383.563599 556.766235,383.957214 
	C556.326172,384.885345 556.133301,385.419861 555.940430,385.954407 
	C555.940491,385.954407 555.978333,385.997589 555.734985,386.069519 
	C555.221680,386.355591 555.049316,386.630890 554.974670,386.967285 
	C550.048401,392.668549 545.160828,398.404083 540.169128,404.047455 
	C538.884033,405.500275 537.271118,406.663177 535.477783,408.023987 
	C530.036682,402.015594 524.595642,396.187347 519.884277,389.819214 
	C509.525269,375.817352 499.208313,361.762329 489.491882,347.313629 
	C480.849091,334.461548 474.874847,320.289795 472.109375,304.935516 
	C471.763977,303.017670 472.151093,300.967865 472.693665,298.534180 
	C474.486450,298.257721 475.784485,298.425018 477.082214,298.595093 
	C485.202576,299.659210 493.322845,300.723969 501.611206,302.109863 
	C504.490387,315.534210 511.708313,326.108643 520.174133,336.128662 
	C525.735474,342.710968 530.571411,349.900574 535.893677,356.691711 
	C542.843933,365.560089 549.953857,374.303406 556.995056,383.100525 
z"/>
<path fill="#373D53" opacity="1.000000" stroke="none" 
	d="
M605.291138,300.118835 
	C615.362244,299.863861 625.433350,299.608887 635.879639,299.365295 
	C635.756592,310.959137 632.899902,322.000122 627.951538,332.412964 
	C618.137390,353.064789 604.863098,371.543915 591.292725,389.819458 
	C588.048950,394.187927 584.915588,398.638397 581.434631,403.236267 
	C579.362976,399.022949 578.022766,394.371155 575.659363,390.315643 
	C574.098267,387.636810 570.954041,389.032410 570.273499,391.331757 
	C568.101013,398.672272 561.072144,397.407898 556.185608,399.860687 
	C555.544434,400.182526 553.603455,399.506683 553.578430,399.189301 
	C553.468689,397.798431 553.492554,396.188629 554.111511,394.990784 
	C555.536316,392.233307 557.528687,389.762787 558.876587,386.975525 
	C559.338623,386.020050 558.567749,384.468353 558.172241,382.713318 
	C566.839600,369.813293 576.266113,357.747986 584.369141,344.851135 
	C590.852844,334.531555 595.881714,323.276062 601.232544,312.278442 
	C603.086060,308.468811 603.966309,304.185699 605.291138,300.118835 
z"/>
<path fill="#EFAA60" opacity="1.000000" stroke="none" 
	d="
M501.443146,301.788513 
	C493.322845,300.723969 485.202576,299.659210 477.082214,298.595093 
	C475.784485,298.425018 474.486450,298.257721 472.796234,298.101440 
	C467.915833,265.269379 488.228058,231.254456 519.623901,219.058289 
	C521.476746,218.338516 523.363770,217.706421 525.607300,216.991119 
	C527.426453,217.632080 528.839355,218.810776 530.325745,218.912292 
	C536.442505,219.330109 537.777100,219.938995 537.801331,226.173401 
	C537.823303,231.812683 540.890381,232.786331 545.223999,232.979691 
	C547.200195,233.067871 549.189087,232.907593 551.162109,233.026505 
	C556.880981,233.371140 557.877319,234.455536 557.539246,240.657852 
	C524.443237,238.391113 496.273376,268.353790 501.443146,301.788513 
z"/>
<path fill="#45B0BA" opacity="1.000000" stroke="none" 
	d="
M393.051453,470.114014 
	C390.513153,471.249756 387.974884,472.385437 384.870697,473.825500 
	C378.188416,478.079285 372.072021,482.028687 365.623840,485.888672 
	C350.858856,477.780609 336.425598,469.761871 321.974731,461.387329 
	C321.797302,458.728912 316.696960,457.781525 320.017609,454.604614 
	C324.637726,450.184479 321.874817,446.081604 319.536285,442.146576 
	C317.404144,438.558777 314.757202,435.276855 311.725372,430.996399 
	C314.639771,430.996399 316.685211,431.367920 318.493591,430.873108 
	C319.822540,430.509430 320.841095,429.011322 321.997955,428.018799 
	C334.846680,430.527466 345.832214,437.285034 356.768280,443.864471 
	C369.295837,451.401428 381.359375,459.709686 393.737457,468.222839 
	C393.584076,469.213196 393.317749,469.663605 393.051453,470.114014 
z"/>
<path fill="#40ACB5" opacity="1.000000" stroke="none" 
	d="
M321.740265,427.779449 
	C320.841095,429.011322 319.822540,430.509430 318.493591,430.873108 
	C316.685211,431.367920 314.639771,430.996399 311.725372,430.996399 
	C314.757202,435.276855 317.404144,438.558777 319.536285,442.146576 
	C321.874817,446.081604 324.637726,450.184479 320.017609,454.604614 
	C316.696960,457.781525 321.797302,458.728912 321.694824,461.402069 
	C320.950867,461.511688 320.469269,461.250763 319.754578,460.708557 
	C315.728790,459.603424 311.966492,458.549774 308.131927,458.041565 
	C305.813507,457.734283 303.382935,458.273071 300.574615,458.551056 
	C291.780029,460.899109 283.413574,463.127808 275.047119,465.356506 
	C271.693665,463.250275 268.382050,461.073547 264.977753,459.053009 
	C258.432007,455.168091 251.833725,451.371674 245.049377,447.261444 
	C263.904205,431.543457 285.128601,422.533569 310.845642,425.305420 
	C312.060669,425.704224 312.644104,425.807495 313.227539,425.910767 
	C313.631622,425.932068 314.035675,425.953339 314.815826,426.192261 
	C315.191895,426.409851 315.601868,426.521576 315.601868,426.521576 
	C315.601868,426.521576 315.959045,426.256775 315.959045,426.256775 
	C317.800232,426.684570 319.641388,427.112335 321.740265,427.779449 
z"/>
<path fill="#C16059" opacity="1.000000" stroke="none" 
	d="
M851.932373,514.956543 
	C851.320679,510.070374 850.917358,505.147034 850.052612,500.306061 
	C848.417358,491.151001 844.238586,483.149109 838.238281,475.316376 
	C839.585388,463.003754 841.011597,451.401398 842.437866,439.799072 
	C863.600281,454.360626 874.860718,474.744476 877.776245,500.006226 
	C878.080750,502.644531 878.094055,505.316437 877.875793,508.605804 
	C868.983582,511.144745 860.457947,513.050659 851.932373,514.956543 
z"/>
<path fill="#EFAA60" opacity="1.000000" stroke="none" 
	d="
M851.731445,515.312988 
	C860.457947,513.050659 868.983582,511.144745 877.854309,509.062439 
	C880.562500,525.335938 876.710144,540.617065 869.091309,555.043884 
	C866.622375,559.718933 863.222900,563.902649 860.111816,568.611938 
	C857.225586,571.269714 854.476624,573.626770 850.972168,576.631531 
	C846.629333,571.056702 841.736450,564.775635 837.142883,558.878906 
	C837.408875,557.786255 837.387756,557.386108 837.576660,557.166687 
	C847.856873,545.223633 851.758057,531.142090 851.731445,515.312988 
z"/>
<path fill="#C4605D" opacity="1.000000" stroke="none" 
	d="
M536.016357,641.496521 
	C534.757751,644.136047 533.232910,645.854980 530.010559,643.982117 
	C530.778687,642.411438 531.885559,640.993347 533.342407,639.126953 
	C526.604187,630.837830 519.733032,622.385132 512.854736,613.195862 
	C515.558533,605.021851 518.358276,597.614624 520.905396,590.121521 
	C521.411499,588.632446 520.949951,586.814514 520.993774,584.774780 
	C521.752563,582.510681 522.452271,580.619995 523.491943,578.812622 
	C527.341797,582.122070 531.097595,585.122192 534.311829,588.619812 
	C541.692810,596.651306 548.809875,604.925232 556.034058,613.100769 
	C550.424255,620.106384 544.709778,627.032288 539.272034,634.169006 
	C537.750427,636.166016 537.044312,638.784424 536.016357,641.496521 
z"/>
<path fill="#373D53" opacity="1.000000" stroke="none" 
	d="
M591.919312,619.012207 
	C590.758606,619.238831 589.229492,620.037170 588.644531,619.592834 
	C584.805969,616.676819 583.212769,619.014160 581.334839,622.037720 
	C580.630493,623.171753 578.603333,623.413818 577.325073,624.278137 
	C575.409851,625.572937 573.084778,626.711731 571.907349,628.542786 
	C570.111511,631.335632 568.104004,631.560547 565.644714,630.236877 
	C563.177063,628.908691 560.142273,627.716003 558.761292,625.562805 
	C557.546692,623.668945 558.199219,620.529907 558.170105,617.939209 
	C558.148804,616.047424 558.359680,614.153076 558.282104,611.789124 
	C565.216736,603.325745 572.336243,595.333069 579.455750,587.340454 
	C581.021057,587.935242 582.586365,588.530029 584.941528,589.054565 
	C590.861877,588.053284 594.190063,590.069641 596.859924,596.151794 
	C598.117798,599.017517 599.261169,599.800659 601.885254,597.442017 
	C603.230652,596.232727 605.323853,595.895020 606.970764,594.970520 
	C608.690247,594.005371 611.168823,593.157593 611.761353,591.648376 
	C613.638428,586.866882 615.951843,587.207886 619.086487,590.173889 
	C618.606140,590.732788 618.125732,591.291687 617.005737,591.945435 
	C615.235779,593.316589 614.105347,594.592896 612.974976,595.869263 
	C611.124878,597.753357 609.274780,599.637451 606.832214,601.772827 
	C605.445190,602.696594 604.584595,603.305664 603.868042,604.052979 
	C601.396667,606.630127 599.407776,610.526306 596.425781,611.540466 
	C592.707703,612.804993 592.951904,614.684570 593.125366,617.322815 
	C593.125366,617.322815 593.041504,617.805420 592.701538,618.047058 
	C592.192688,618.454163 592.069946,618.648743 591.993286,618.872437 
	C591.993286,618.872437 591.987610,619.009155 591.919312,619.012207 
z"/>
<path fill="#373D53" opacity="1.000000" stroke="none" 
	d="
M744.117859,551.876465 
	C753.499512,557.143616 762.485901,563.570862 772.287537,568.312927 
	C782.674622,573.338074 793.863586,576.580627 805.791016,574.170715 
	C808.710449,573.580750 811.379944,573.812500 813.389099,576.889771 
	C814.273621,578.500671 815.284607,579.984436 815.292847,581.473816 
	C815.324890,587.229553 815.227661,593.003479 814.732849,598.732117 
	C814.610657,600.147034 812.808838,601.416748 811.389771,602.706909 
	C807.937744,597.556519 805.956482,590.909546 801.503784,587.788513 
	C797.172180,584.752319 790.325623,584.664001 784.551880,584.517090 
	C779.441345,584.387146 774.812500,584.291870 770.911926,580.490723 
	C769.525635,579.139771 767.823364,577.904419 766.034546,577.214844 
	C760.941162,575.251221 755.556274,573.921204 753.681885,567.684814 
	C753.380310,566.681274 751.750793,565.999634 750.638672,565.329285 
	C742.899109,560.664001 742.868835,560.633728 744.117859,551.876465 
z"/>
<path fill="#383F55" opacity="1.000000" stroke="none" 
	d="
M788.509033,459.229309 
	C787.104187,458.006622 786.338867,456.487549 785.110718,455.635590 
	C781.061584,452.826508 780.814331,448.025177 784.996582,445.739807 
	C792.636841,441.564850 800.358459,437.529572 808.159424,433.664734 
	C810.085938,432.710266 812.447693,432.634064 815.390320,431.980682 
	C812.952698,429.781738 811.206421,428.206421 809.243774,426.381470 
	C818.542358,429.429443 828.057434,432.727081 837.449036,436.483582 
	C835.606201,443.188049 832.320251,447.969513 825.384827,448.892975 
	C820.992432,449.477783 816.513184,449.444397 812.137634,450.112305 
	C807.839966,450.768311 804.751953,452.972107 805.013611,457.977539 
	C799.654602,458.397858 794.295532,458.818146 788.509033,459.229309 
z"/>
<path fill="#373D53" opacity="1.000000" stroke="none" 
	d="
M622.818970,457.713684 
	C614.642456,463.382355 610.708618,461.865112 603.766052,454.034729 
	C597.030823,446.438141 589.143799,439.777069 581.267273,433.308258 
	C576.048035,429.021759 569.819092,425.985077 564.343140,421.977600 
	C562.809631,420.855316 561.928833,418.336426 561.628662,416.326752 
	C561.532898,415.685699 564.428345,414.794769 565.685852,413.706970 
	C567.428040,412.199860 569.649475,410.662659 570.365967,408.670807 
	C572.060669,403.959991 574.854004,403.599304 579.119751,405.647003 
	C577.287720,408.211639 577.296936,410.028137 579.732666,412.535095 
	C594.159546,427.383789 608.380554,442.432465 622.818970,457.713684 
z"/>
<path fill="#5C4153" opacity="1.000000" stroke="none" 
	d="
M520.934692,585.148193 
	C520.949951,586.814514 521.411499,588.632446 520.905396,590.121521 
	C518.358276,597.614624 515.558533,605.021851 512.768738,612.862427 
	C503.792664,604.441223 494.895386,595.616760 485.856018,586.488037 
	C486.980438,582.459900 488.182159,578.712158 489.542603,575.022949 
	C490.159485,573.350159 491.091156,571.793396 492.582733,570.168701 
	C495.663849,571.615845 497.972687,573.209290 500.433990,574.515442 
	C507.233490,578.123840 514.096680,581.612305 520.934692,585.148193 
z"/>
<path fill="#5C4153" opacity="1.000000" stroke="none" 
	d="
M805.321777,458.180176 
	C804.751953,452.972107 807.839966,450.768311 812.137634,450.112305 
	C816.513184,449.444397 820.992432,449.477783 825.384827,448.892975 
	C832.320251,447.969513 835.606201,443.188049 837.724976,436.740143 
	C839.448608,437.438904 840.772888,438.340057 842.267517,439.520142 
	C841.011597,451.401398 839.585388,463.003754 838.070801,475.049805 
	C830.210693,470.640442 822.545166,465.602356 814.606995,461.038696 
	C811.975403,459.525787 808.642334,459.233307 805.321777,458.180176 
z"/>
<path fill="#383F55" opacity="1.000000" stroke="none" 
	d="
M619.400208,590.048462 
	C615.951843,587.207886 613.638428,586.866882 611.761353,591.648376 
	C611.168823,593.157593 608.690247,594.005371 606.970764,594.970520 
	C605.323853,595.895020 603.230652,596.232727 601.885254,597.442017 
	C599.261169,599.800659 598.117798,599.017517 596.859924,596.151794 
	C594.190063,590.069641 590.861877,588.053284 585.365662,588.989624 
	C586.638977,582.120422 597.020935,576.918579 603.116699,579.917297 
	C603.558655,580.134705 604.072510,580.266418 604.435120,580.575928 
	C609.521973,584.918335 610.879028,584.862427 616.481628,580.018005 
	C621.657043,575.542969 624.854065,575.878174 627.983276,581.592102 
	C625.233765,584.615295 622.473877,587.269226 619.400208,590.048462 
z"/>
<path fill="#383F55" opacity="1.000000" stroke="none" 
	d="
M762.624634,435.868713 
	C762.864868,443.252960 761.314087,444.837128 753.888550,446.116241 
	C750.833496,446.642517 747.309448,446.528259 745.788757,450.485687 
	C745.333130,451.671417 743.438293,452.304138 741.181091,452.481171 
	C741.433228,451.126556 741.685364,449.771942 741.970154,448.028076 
	C748.752869,443.721436 755.502930,439.804016 762.624634,435.868713 
z"/>
<path fill="#383F55" opacity="1.000000" stroke="none" 
	d="
M593.460571,617.223694 
	C592.951904,614.684570 592.707703,612.804993 596.425781,611.540466 
	C599.407776,610.526306 601.396667,606.630127 603.868042,604.052979 
	C604.584595,603.305664 605.445190,602.696594 606.600830,602.012878 
	C602.573181,607.042603 598.184509,612.083618 593.460571,617.223694 
z"/>
<path fill="#C16059" opacity="1.000000" stroke="none" 
	d="
M482.869690,793.487793 
	C487.515045,792.550110 488.256500,796.723328 490.082031,799.401733 
	C491.063599,800.841858 491.308685,802.784058 491.895935,804.887573 
	C488.911560,801.462158 485.917328,797.648804 482.869690,793.487793 
z"/>
<path fill="#C16059" opacity="1.000000" stroke="none" 
	d="
M477.300354,782.361206 
	C482.464935,783.652954 481.812897,788.482178 482.901306,792.746094 
	C481.018646,789.669678 479.167267,786.189880 477.300354,782.361206 
z"/>
<path fill="#373D53" opacity="1.000000" stroke="none" 
	d="
M789.391357,604.077881 
	C792.800415,603.781433 796.587280,603.601196 800.678833,603.690186 
	C797.245361,604.037598 793.507202,604.115845 789.391357,604.077881 
z"/>
<path fill="#383F55" opacity="1.000000" stroke="none" 
	d="
M613.246338,595.698486 
	C614.105347,594.592896 615.235779,593.316589 616.743286,592.046814 
	C615.919495,593.211548 614.718628,594.369629 613.246338,595.698486 
z"/>
<path fill="#373D53" opacity="1.000000" stroke="none" 
	d="
M628.174072,462.596069 
	C626.917480,461.821991 625.507507,460.755127 624.052490,459.334137 
	C625.345093,460.087769 626.682861,461.195526 628.174072,462.596069 
z"/>
<path fill="#373D53" opacity="1.000000" stroke="none" 
	d="
M803.430420,603.822083 
	C804.870361,603.324463 806.685974,602.883728 808.739624,602.675903 
	C807.253723,603.232178 805.529907,603.555542 803.430420,603.822083 
z"/>
<path fill="#394057" opacity="1.000000" stroke="none" 
	d="
M393.210205,470.300568 
	C393.317749,469.663605 393.584076,469.213196 393.924561,468.510437 
	C394.455688,468.425720 394.912628,468.593323 395.499146,468.972412 
	C394.875427,469.618286 394.122192,470.052704 393.210205,470.300568 
z"/>
<path fill="#C4605D" opacity="1.000000" stroke="none" 
	d="
M636.447083,742.430786 
	C636.202637,742.044678 636.082703,741.451050 636.022827,740.639771 
	C636.245850,741.022461 636.408752,741.622864 636.447083,742.430786 
z"/>
<path fill="#373D53" opacity="1.000000" stroke="none" 
	d="
M580.028992,405.291016 
	C579.997375,405.003662 580.127502,404.562927 580.541016,404.063904 
	C580.613098,404.382996 580.401917,404.760284 580.028992,405.291016 
z"/>
<path fill="#45B0BA" opacity="1.000000" stroke="none" 
	d="
M313.012451,425.695740 
	C312.644104,425.807495 312.060669,425.704224 311.262024,425.392151 
	C311.630341,425.282501 312.213867,425.381592 313.012451,425.695740 
z"/>
<path fill="#C16059" opacity="1.000000" stroke="none" 
	d="
M495.932892,809.323608 
	C496.138824,809.259155 496.430664,809.458984 496.832031,809.906372 
	C496.634003,809.965271 496.326416,809.776611 495.932892,809.323608 
z"/>
<path fill="#C16059" opacity="1.000000" stroke="none" 
	d="
M494.834839,808.333130 
	C495.028107,808.263489 495.355988,808.449829 495.818542,808.891541 
	C495.625305,808.960999 495.297363,808.775085 494.834839,808.333130 
z"/>
<path fill="#C16059" opacity="1.000000" stroke="none" 
	d="
M496.933685,810.329102 
	C497.143860,810.285889 497.439941,810.518433 497.831055,811.023071 
	C497.623871,811.065063 497.321716,810.834900 496.933685,810.329102 
z"/>
<path fill="#383F55" opacity="1.000000" stroke="none" 
	d="
M788.656982,426.164429 
	C788.624695,426.388519 788.272827,426.586639 787.609863,426.790375 
	C787.645020,426.576813 787.991211,426.357635 788.656982,426.164429 
z"/>
<path fill="#383F55" opacity="1.000000" stroke="none" 
	d="
M592.182739,618.834106 
	C592.069946,618.648743 592.192688,618.454163 592.500366,618.186829 
	C592.636108,618.354187 592.547119,618.591125 592.182739,618.834106 
z"/>
<path fill="#45B0BA" opacity="1.000000" stroke="none" 
	d="
M315.730621,426.179504 
	C315.959045,426.256775 315.601868,426.521576 315.601868,426.521576 
	C315.601868,426.521576 315.191895,426.409851 315.107239,426.281372 
	C315.022583,426.152893 315.502197,426.102264 315.730621,426.179504 
z"/>
<path fill="#394057" opacity="1.000000" stroke="none" 
	d="
M655.909668,486.766876 
	C655.693909,486.899414 655.440674,486.730530 655.115234,486.292786 
	C655.354614,486.086487 655.631042,486.233673 655.909668,486.766876 
z"/>
<path fill="#EDAE66" opacity="1.000000" stroke="none" 
	d="
M579.655884,587.195068 
	C572.336243,595.333069 565.216736,603.325745 557.973633,611.635864 
	C557.403870,612.249451 556.957703,612.545471 556.272827,612.971191 
	C548.809875,604.925232 541.692810,596.651306 534.311829,588.619812 
	C531.097595,585.122192 527.341797,582.122070 523.477722,578.472900 
	C521.995361,576.474365 521.083008,574.671753 519.703186,573.361389 
	C512.175659,566.212891 504.533112,559.185547 496.930176,552.116516 
	C486.445404,543.340332 475.960663,534.564209 465.301392,525.534058 
	C477.570862,515.001282 490.686890,505.422455 502.296478,494.274719 
	C518.469666,478.744873 533.549866,462.073700 549.013062,445.810394 
	C551.863586,442.812378 554.311218,439.431305 557.115601,435.884796 
	C574.006165,452.668457 590.347595,470.187042 607.578552,486.782074 
	C619.046143,497.826355 631.785278,507.549988 643.949158,517.871948 
	C645.183960,518.919739 646.376221,520.017578 646.954834,520.530579 
	C624.407532,542.883057 602.131775,564.966370 579.655884,587.195068 
z"/>
<path fill="#EBEAE6" opacity="1.000000" stroke="none" 
	d="
M501.611206,302.109863 
	C496.273376,268.353790 524.443237,238.391113 557.540161,241.083466 
	C568.859863,242.980576 578.704895,247.154724 586.901611,254.631790 
	C598.519043,265.229340 604.456909,278.504822 604.931702,294.225403 
	C604.981750,295.884155 605.095398,297.541016 605.235352,299.658813 
	C603.966309,304.185699 603.086060,308.468811 601.232544,312.278442 
	C595.881714,323.276062 590.852844,334.531555 584.369141,344.851135 
	C576.266113,357.747986 566.839600,369.813293 557.857727,382.558716 
	C557.731018,382.879822 557.336975,382.901642 557.166016,383.001099 
	C549.953857,374.303406 542.843933,365.560089 535.893677,356.691711 
	C530.571411,349.900574 525.735474,342.710968 520.174133,336.128662 
	C511.708313,326.108643 504.490387,315.534210 501.611206,302.109863 
M579.441956,317.877258 
	C587.465515,307.780731 588.733704,296.631653 585.018982,284.499481 
	C579.662964,267.007202 561.715149,255.893082 545.254456,260.115540 
	C525.873413,265.087097 515.528076,281.455383 519.094421,301.505646 
	C521.618225,315.694763 533.035095,328.218658 546.487305,330.607788 
	C559.523010,332.923035 570.292419,328.193573 579.441956,317.877258 
z"/>
<path fill="#373D53" opacity="1.000000" stroke="none" 
	d="
M556.186951,385.797485 
	C556.133301,385.419861 556.326172,384.885345 556.760376,384.188843 
	C556.812317,384.564758 556.622864,385.102661 556.186951,385.797485 
z"/>
<path fill="#373D53" opacity="1.000000" stroke="none" 
	d="
M555.191650,386.857483 
	C555.049316,386.630890 555.221680,386.355591 555.721375,386.048553 
	C555.857727,386.279602 555.676941,386.543579 555.191650,386.857483 
z"/>
<path fill="#EBEAE6" opacity="1.000000" stroke="none" 
	d="
M274.811340,465.560852 
	C283.413574,463.127808 291.780029,460.899109 301.009644,458.669312 
	C307.911133,459.442108 313.949371,460.215973 319.987640,460.989807 
	C320.469269,461.250763 320.950867,461.511688 321.712402,461.757874 
	C336.425598,469.761871 350.858856,477.780609 365.869995,486.120972 
	C381.710602,497.945648 396.973328,509.448700 412.236053,520.951721 
	C387.103180,536.527893 363.675720,554.869812 336.579926,567.266663 
	C316.949890,576.247803 297.294556,578.318848 277.356812,568.433594 
	C275.423981,567.475342 273.583344,566.331055 271.394836,565.115479 
	C267.559113,561.008179 263.853333,557.199890 260.528046,553.084290 
	C245.503571,534.488953 242.398666,501.339783 258.478638,481.142609 
	C263.057983,475.390808 269.167664,470.857361 274.811340,465.560852 
M286.077332,553.574097 
	C293.699463,556.784302 301.462341,558.271973 309.852905,557.113708 
	C333.487640,553.851013 349.059143,533.054565 344.754181,509.948975 
	C340.460785,486.905701 317.461121,471.607635 293.720795,476.897705 
	C276.438965,480.748657 267.149902,492.142181 264.648468,509.744171 
	C262.217926,526.847290 270.499451,544.995056 286.077332,553.574097 
z"/>
<path fill="#394057" opacity="1.000000" stroke="none" 
	d="
M412.638031,520.965881 
	C396.973328,509.448700 381.710602,497.945648 366.201752,486.210327 
	C372.072021,482.028687 378.188416,478.079285 384.660095,474.092163 
	C384.829926,475.987762 384.644440,477.921021 384.419556,480.265411 
	C394.448914,479.300446 394.065491,489.516144 399.323578,493.781372 
	C401.195190,495.299530 402.757111,497.253204 404.252106,499.170502 
	C407.150848,502.888062 409.886200,506.732605 412.722351,510.499603 
	C413.813019,511.948242 415.109009,513.252380 416.110168,514.756348 
	C418.319122,518.074524 417.137543,520.387085 412.638031,520.965881 
z"/>
<path fill="#C16059" opacity="1.000000" stroke="none" 
	d="
M496.979675,552.524231 
	C504.533112,559.185547 512.175659,566.212891 519.703186,573.361389 
	C521.083008,574.671753 521.995361,576.474365 523.137695,578.389526 
	C522.452271,580.619995 521.752563,582.510681 520.993774,584.774780 
	C514.096680,581.612305 507.233490,578.123840 500.433990,574.515442 
	C497.972687,573.209290 495.663849,571.615845 492.904236,570.073975 
	C494.025055,564.307007 495.527100,558.619446 496.979675,552.524231 
z"/>
<path fill="#EDAE66" opacity="1.000000" stroke="none" 
	d="
M772.801697,485.773376 
	C795.350525,466.355988 828.341736,477.087738 835.387634,506.274048 
	C841.021484,529.611389 827.178406,555.721191 798.274109,557.348206 
	C783.275757,558.192505 771.534241,549.961670 764.377563,536.564148 
	C754.717346,518.480164 757.737000,501.001007 772.801697,485.773376 
z"/>
<path fill="#383F55" opacity="1.000000" stroke="none" 
	d="
M745.489441,483.239899 
	C740.866089,478.193695 745.602051,474.074249 746.756287,469.554016 
	C747.443237,466.863647 748.147949,464.167358 749.063110,461.550110 
	C749.515259,460.257111 750.289185,458.977722 751.218323,457.969452 
	C753.727722,455.246246 756.709778,452.907623 758.928223,449.979889 
	C761.843079,446.133209 768.064392,445.846924 772.444458,450.076996 
	C775.814941,453.331970 779.595642,456.637878 777.002625,462.628845 
	C766.609009,469.735291 756.216187,476.434021 745.489441,483.239899 
z"/>
<path fill="#EBEAE6" opacity="1.000000" stroke="none" 
	d="
M502.123596,752.949707 
	C501.336212,739.460571 506.152802,727.805908 514.274902,717.446838 
	C528.013184,699.924927 541.992371,682.591736 555.970337,664.818726 
	C556.969238,665.156128 558.071106,665.699585 558.736511,666.574890 
	C570.291870,681.775208 581.966431,696.889709 593.248352,712.291443 
	C601.186340,723.128113 605.364990,735.467468 605.997070,749.330322 
	C605.949463,751.468628 605.794617,753.239929 605.200500,755.569214 
	C598.962402,757.062927 593.163574,757.998657 587.308594,758.486328 
	C586.949158,736.150818 573.104248,721.098206 553.363892,719.955139 
	C536.424561,718.974182 516.508484,731.830261 514.411255,754.944031 
	C510.058777,754.281372 506.091187,753.615540 502.123596,752.949707 
z"/>
<path fill="#E1C8BC" opacity="1.000000" stroke="none" 
	d="
M502.053070,753.399414 
	C506.091187,753.615540 510.058777,754.281372 514.539917,755.322571 
	C516.044067,759.385437 516.680359,763.214600 518.087891,766.735413 
	C523.535889,780.362854 533.691895,788.916138 548.130981,790.755676 
	C561.743530,792.489929 573.065308,786.684082 580.738342,775.430298 
	C583.998596,770.648560 585.217896,764.475220 587.364746,758.934387 
	C593.163574,757.998657 598.962402,757.062927 605.077759,755.987549 
	C603.678406,772.985657 595.807617,786.398804 581.038147,795.445435 
	C571.251038,801.440247 560.715210,805.574219 549.045349,805.148621 
	C545.057556,805.003174 540.970581,803.628784 537.201782,802.129700 
	C522.370117,796.230225 510.937988,786.608215 504.707764,771.126160 
	C503.677643,765.183777 502.830078,759.516418 502.053070,753.399414 
z"/>
<path fill="#45B0BA" opacity="1.000000" stroke="none" 
	d="
M319.754578,460.708527 
	C313.949371,460.215973 307.911133,459.442108 301.437805,458.549988 
	C303.382935,458.273071 305.813507,457.734283 308.131927,458.041565 
	C311.966492,458.549774 315.728790,459.603424 319.754578,460.708527 
z"/>
<path fill="#EDAE66" opacity="1.000000" stroke="none" 
	d="
M579.222534,318.161377 
	C570.292419,328.193573 559.523010,332.923035 546.487305,330.607788 
	C533.035095,328.218658 521.618225,315.694763 519.094421,301.505646 
	C515.528076,281.455383 525.873413,265.087097 545.254456,260.115540 
	C561.715149,255.893082 579.662964,267.007202 585.018982,284.499481 
	C588.733704,296.631653 587.465515,307.780731 579.222534,318.161377 
z"/>
<path fill="#EDAE66" opacity="1.000000" stroke="none" 
	d="
M285.741821,553.401550 
	C270.499451,544.995056 262.217926,526.847290 264.648468,509.744171 
	C267.149902,492.142181 276.438965,480.748657 293.720795,476.897705 
	C317.461121,471.607635 340.460785,486.905701 344.754181,509.948975 
	C349.059143,533.054565 333.487640,553.851013 309.852905,557.113708 
	C301.462341,558.271973 293.699463,556.784302 285.741821,553.401550 
z"/>
<path fill="#CD724D" opacity="1.000000" stroke="none" 
	d="
M587.308533,758.486328 
	C585.217896,764.475220 583.998596,770.648560 580.738342,775.430298 
	C573.065308,786.684082 561.743530,792.489929 548.130981,790.755676 
	C533.691895,788.916138 523.535889,780.362854 518.087891,766.735413 
	C516.680359,763.214600 516.044067,759.385437 514.924805,755.319397 
	C516.508484,731.830261 536.424561,718.974182 553.363892,719.955139 
	C573.104248,721.098206 586.949158,736.150818 587.308533,758.486328 
z"/>
</svg>